<svg width="14" height="14" fill="none" xmlns="http://www.w3.org/2000/svg"><path d="M6.99334.333344c-3.68 0-6.660004 2.986666-6.660004 6.666666 0 3.67999 2.980004 6.66669 6.660004 6.66669 3.68666 0 6.67336-2.9867 6.67336-6.66669 0-3.68-2.9867-6.666666-6.67336-6.666666ZM7 12.3333c-2.94666 0-5.33333-2.38662-5.33333-5.33329 0-2.94667 2.38667-5.33333 5.33333-5.33333 2.94667 0 5.3333 2.38666 5.3333 5.33333S9.94667 12.3333 7 12.3333Zm.33334-8.66662h-1v4l3.5 2.1.49996-.82-2.99996-1.78v-3.5Z" fill="#888"/></svg>